<?xml version="1.0" encoding="utf-8"?>
<!-- Generator: Adobe Illustrator 25.0.1, SVG Export Plug-In . SVG Version: 6.00 Build 0)  -->
<svg version="1.1" id="Calque_1" xmlns="http://www.w3.org/2000/svg" xmlns:xlink="http://www.w3.org/1999/xlink" x="0px" y="0px"
	 viewBox="0 0 295 88.4" style="enable-background:new 0 0 295 88.4;" xml:space="preserve">
<style type="text/css">
	.st0{fill:#FFFFFF;}
</style>
<g>
	<path class="st0" d="M44.9,7.3c17.2,0,25.7,10.7,26.3,23.3H59.5C58,22.3,54.9,19,44.9,19C34.2,19,29,23,29,37.9s5.2,18.9,15.9,18.9
		c10,0,13-3.2,14.6-11.6h11.7c-0.5,12.6-9.1,23.3-26.3,23.3c-20.1,0-27.6-15.3-27.6-30.6C17.3,22.6,24.9,7.3,44.9,7.3z"/>
	<path class="st0" d="M124.6,22.2v60.8H86.8V71.2h26.1V59.1c-2.7,3-7.1,4.9-12.5,4.9c-14.1,0-19.7-8.4-19.7-20.7V22.2h11.7v20.7
		c0,7.2,3.2,9.5,10.3,9.5s10.3-2.2,10.3-9.5V22.2C112.9,22.2,124.6,22.2,124.6,22.2z"/>
	<path class="st0" d="M154.5,22.2c13.3,0,20.2,9.1,20.2,18.9H163c-0.4-4.2-1.8-7.2-8.4-7.2c-7.9,0-9.8,3.3-9.8,11.4
		s1.9,11.5,9.8,11.5c6.6,0,8-3,8.4-7.2h11.7c0,9.8-6.9,18.9-20.2,18.9c-14.4,0-21.3-10-21.3-23.2S140.1,22.2,154.5,22.2z"/>
	<path class="st0" d="M195,5.5v63h-11.7v-63C183.3,5.5,195,5.5,195,5.5z"/>
	<path class="st0" d="M218.4,56.8v11.7h-11.7V56.8C206.7,56.8,218.4,56.8,218.4,56.8z"/>
	<path class="st0" d="M218.4,31.2v11.7h-11.7V31.2C206.7,31.2,218.4,31.2,218.4,31.2z"/>
	<path class="st0" d="M277.7,44.2v24.3H266V49.8h-24.2v18.7h-11.7V7.3h21.5c19.4,0,25.2,8.3,25.2,19.4c0,9.9-4.9,15.6-17.5,16.1v1.4
		C259.3,44.2,277.7,44.2,277.7,44.2z M251.6,38.1c10.4,0,13.5-2,13.5-9.6c0-7.9-3.1-9.5-13.5-9.5h-9.8v19.1H251.6z"/>
</g>
</svg>
